<svg aria-hidden="true" width="34" height="34" viewBox="0 0 448 512" xmlns="http://www.w3.org/2000/svg">
    <g>
        <circle cx="220" cy="200" r="200" fill="dark" />
        <path d="M585.142857 258.285714l180.571429 180.571429-326.857143 326.857143-180.571429-180.571429zm-120.571429 559.428571l353.142857-353.142857q10.857143-10.857143 10.857143-25.714286t-10.857143-25.714286l-206.857143-206.857143q-10.285714-10.285714-25.714286-10.285714t-25.714286 10.285714l-353.142857 353.142857q-10.857143 10.857143-10.857143 25.714286t10.857143 25.714286l206.857143 206.857143q10.285714 10.285714 25.714286 10.285714t25.714286-10.285714zm508-364l-518.285714 518.857143q-21.142857 21.142857-51.714286 21.142857t-51.714286-21.142857l-72-72q32-32 32-77.714286t-32-77.714286-77.714286-32-77.714286 32l-71.428571-72q-21.142857-21.142857-21.142857-51.714286t21.142857-51.714286l518.285714-517.714286q21.142857-21.142857 51.714286-21.142857t51.714286 21.142857l71.428571 71.428571q-32 32-32 77.714286t32 77.714286 77.714286 32 77.714286-32l72 71.428571q21.142857 21.142857 21.142857 51.714286t-21.142857 51.714286z"
        fill="white" 
        transform="translate(60, 40) scale (0.3)" 
        />
    </g>
</svg>